<svg xmlns="http://www.w3.org/2000/svg" width="980" height="360" viewBox="0 0 980 360" role="img" aria-label="agents/ line-count distribution">
<rect width="100%" height="100%" fill="#f8fafc" />
<text x="70" y="24" font-family="Menlo, Consolas, monospace" font-size="16" fill="#0f172a">agents/ line-count distribution</text>
<text x="70" y="42" font-family="Menlo, Consolas, monospace" font-size="11" fill="#475569">Bucket size: 10 lines</text>
<line x1="70" y1="290.00" x2="960" y2="290.00" stroke="#cbd5e1" stroke-width="1" />
<text x="62" y="294.00" text-anchor="end" font-family="Menlo, Consolas, monospace" font-size="10" fill="#334155">0</text>
<line x1="70" y1="240.00" x2="960" y2="240.00" stroke="#cbd5e1" stroke-width="1" />
<text x="62" y="244.00" text-anchor="end" font-family="Menlo, Consolas, monospace" font-size="10" fill="#334155">1</text>
<line x1="70" y1="190.00" x2="960" y2="190.00" stroke="#cbd5e1" stroke-width="1" />
<text x="62" y="194.00" text-anchor="end" font-family="Menlo, Consolas, monospace" font-size="10" fill="#334155">3</text>
<line x1="70" y1="140.00" x2="960" y2="140.00" stroke="#cbd5e1" stroke-width="1" />
<text x="62" y="144.00" text-anchor="end" font-family="Menlo, Consolas, monospace" font-size="10" fill="#334155">4</text>
<line x1="70" y1="90.00" x2="960" y2="90.00" stroke="#cbd5e1" stroke-width="1" />
<text x="62" y="94.00" text-anchor="end" font-family="Menlo, Consolas, monospace" font-size="10" fill="#334155">6</text>
<line x1="70" y1="40.00" x2="960" y2="40.00" stroke="#cbd5e1" stroke-width="1" />
<text x="62" y="44.00" text-anchor="end" font-family="Menlo, Consolas, monospace" font-size="10" fill="#334155">7</text>
<line x1="70" y1="290" x2="960" y2="290" stroke="#0f172a" stroke-width="1.5" />
<line x1="70" y1="40" x2="70" y2="290" stroke="#0f172a" stroke-width="1.5" />
<rect x="70.00" y="254.29" width="7.48" height="35.71" fill="#2563eb"><title>0-9: 1 files</title></rect>
<text x="73.74" y="308.00" text-anchor="middle" font-family="Menlo, Consolas, monospace" font-size="9" fill="#475569" transform="rotate(45 73.74 308.00)">0-9</text>
<rect x="78.48" y="290.00" width="7.48" height="0.00" fill="#2563eb"><title>10-19: 0 files</title></rect>
<rect x="86.95" y="290.00" width="7.48" height="0.00" fill="#2563eb"><title>20-29: 0 files</title></rect>
<rect x="95.43" y="290.00" width="7.48" height="0.00" fill="#2563eb"><title>30-39: 0 files</title></rect>
<rect x="103.90" y="290.00" width="7.48" height="0.00" fill="#2563eb"><title>40-49: 0 files</title></rect>
<rect x="112.38" y="182.86" width="7.48" height="107.14" fill="#2563eb"><title>50-59: 3 files</title></rect>
<rect x="120.86" y="254.29" width="7.48" height="35.71" fill="#2563eb"><title>60-69: 1 files</title></rect>
<rect x="129.33" y="290.00" width="7.48" height="0.00" fill="#2563eb"><title>70-79: 0 files</title></rect>
<rect x="137.81" y="254.29" width="7.48" height="35.71" fill="#2563eb"><title>80-89: 1 files</title></rect>
<text x="141.55" y="308.00" text-anchor="middle" font-family="Menlo, Consolas, monospace" font-size="9" fill="#475569" transform="rotate(45 141.55 308.00)">80-89</text>
<rect x="146.29" y="290.00" width="7.48" height="0.00" fill="#2563eb"><title>90-99: 0 files</title></rect>
<rect x="154.76" y="290.00" width="7.48" height="0.00" fill="#2563eb"><title>100-109: 0 files</title></rect>
<rect x="163.24" y="290.00" width="7.48" height="0.00" fill="#2563eb"><title>110-119: 0 files</title></rect>
<rect x="171.71" y="290.00" width="7.48" height="0.00" fill="#2563eb"><title>120-129: 0 files</title></rect>
<rect x="180.19" y="290.00" width="7.48" height="0.00" fill="#2563eb"><title>130-139: 0 files</title></rect>
<rect x="188.67" y="290.00" width="7.48" height="0.00" fill="#2563eb"><title>140-149: 0 files</title></rect>
<rect x="197.14" y="290.00" width="7.48" height="0.00" fill="#2563eb"><title>150-159: 0 files</title></rect>
<rect x="205.62" y="290.00" width="7.48" height="0.00" fill="#2563eb"><title>160-169: 0 files</title></rect>
<text x="209.36" y="308.00" text-anchor="middle" font-family="Menlo, Consolas, monospace" font-size="9" fill="#475569" transform="rotate(45 209.36 308.00)">160-169</text>
<rect x="214.10" y="290.00" width="7.48" height="0.00" fill="#2563eb"><title>170-179: 0 files</title></rect>
<rect x="222.57" y="182.86" width="7.48" height="107.14" fill="#2563eb"><title>180-189: 3 files</title></rect>
<rect x="231.05" y="290.00" width="7.48" height="0.00" fill="#2563eb"><title>190-199: 0 files</title></rect>
<rect x="239.52" y="290.00" width="7.48" height="0.00" fill="#2563eb"><title>200-209: 0 files</title></rect>
<rect x="248.00" y="290.00" width="7.48" height="0.00" fill="#2563eb"><title>210-219: 0 files</title></rect>
<rect x="256.48" y="290.00" width="7.48" height="0.00" fill="#2563eb"><title>220-229: 0 files</title></rect>
<rect x="264.95" y="218.57" width="7.48" height="71.43" fill="#2563eb"><title>230-239: 2 files</title></rect>
<rect x="273.43" y="254.29" width="7.48" height="35.71" fill="#2563eb"><title>240-249: 1 files</title></rect>
<text x="277.17" y="308.00" text-anchor="middle" font-family="Menlo, Consolas, monospace" font-size="9" fill="#475569" transform="rotate(45 277.17 308.00)">240-249</text>
<rect x="281.90" y="290.00" width="7.48" height="0.00" fill="#2563eb"><title>250-259: 0 files</title></rect>
<rect x="290.38" y="290.00" width="7.48" height="0.00" fill="#2563eb"><title>260-269: 0 files</title></rect>
<rect x="298.86" y="254.29" width="7.48" height="35.71" fill="#2563eb"><title>270-279: 1 files</title></rect>
<rect x="307.33" y="254.29" width="7.48" height="35.71" fill="#2563eb"><title>280-289: 1 files</title></rect>
<rect x="315.81" y="218.57" width="7.48" height="71.43" fill="#2563eb"><title>290-299: 2 files</title></rect>
<rect x="324.29" y="290.00" width="7.48" height="0.00" fill="#2563eb"><title>300-309: 0 files</title></rect>
<rect x="332.76" y="218.57" width="7.48" height="71.43" fill="#2563eb"><title>310-319: 2 files</title></rect>
<rect x="341.24" y="290.00" width="7.48" height="0.00" fill="#2563eb"><title>320-329: 0 files</title></rect>
<text x="344.98" y="308.00" text-anchor="middle" font-family="Menlo, Consolas, monospace" font-size="9" fill="#475569" transform="rotate(45 344.98 308.00)">320-329</text>
<rect x="349.71" y="254.29" width="7.48" height="35.71" fill="#2563eb"><title>330-339: 1 files</title></rect>
<rect x="358.19" y="290.00" width="7.48" height="0.00" fill="#2563eb"><title>340-349: 0 files</title></rect>
<rect x="366.67" y="254.29" width="7.48" height="35.71" fill="#2563eb"><title>350-359: 1 files</title></rect>
<rect x="375.14" y="254.29" width="7.48" height="35.71" fill="#2563eb"><title>360-369: 1 files</title></rect>
<rect x="383.62" y="290.00" width="7.48" height="0.00" fill="#2563eb"><title>370-379: 0 files</title></rect>
<rect x="392.10" y="290.00" width="7.48" height="0.00" fill="#2563eb"><title>380-389: 0 files</title></rect>
<rect x="400.57" y="290.00" width="7.48" height="0.00" fill="#2563eb"><title>390-399: 0 files</title></rect>
<rect x="409.05" y="254.29" width="7.48" height="35.71" fill="#2563eb"><title>400-409: 1 files</title></rect>
<text x="412.79" y="308.00" text-anchor="middle" font-family="Menlo, Consolas, monospace" font-size="9" fill="#475569" transform="rotate(45 412.79 308.00)">400-409</text>
<rect x="417.52" y="182.86" width="7.48" height="107.14" fill="#2563eb"><title>410-419: 3 files</title></rect>
<rect x="426.00" y="290.00" width="7.48" height="0.00" fill="#2563eb"><title>420-429: 0 files</title></rect>
<rect x="434.48" y="218.57" width="7.48" height="71.43" fill="#2563eb"><title>430-439: 2 files</title></rect>
<rect x="442.95" y="254.29" width="7.48" height="35.71" fill="#2563eb"><title>440-449: 1 files</title></rect>
<rect x="451.43" y="218.57" width="7.48" height="71.43" fill="#2563eb"><title>450-459: 2 files</title></rect>
<rect x="459.90" y="290.00" width="7.48" height="0.00" fill="#2563eb"><title>460-469: 0 files</title></rect>
<rect x="468.38" y="290.00" width="7.48" height="0.00" fill="#2563eb"><title>470-479: 0 files</title></rect>
<rect x="476.86" y="290.00" width="7.48" height="0.00" fill="#2563eb"><title>480-489: 0 files</title></rect>
<text x="480.60" y="308.00" text-anchor="middle" font-family="Menlo, Consolas, monospace" font-size="9" fill="#475569" transform="rotate(45 480.60 308.00)">480-489</text>
<rect x="485.33" y="218.57" width="7.48" height="71.43" fill="#2563eb"><title>490-499: 2 files</title></rect>
<rect x="493.81" y="218.57" width="7.48" height="71.43" fill="#2563eb"><title>500-509: 2 files</title></rect>
<rect x="502.29" y="290.00" width="7.48" height="0.00" fill="#2563eb"><title>510-519: 0 files</title></rect>
<rect x="510.76" y="254.29" width="7.48" height="35.71" fill="#2563eb"><title>520-529: 1 files</title></rect>
<rect x="519.24" y="290.00" width="7.48" height="0.00" fill="#2563eb"><title>530-539: 0 files</title></rect>
<rect x="527.71" y="254.29" width="7.48" height="35.71" fill="#2563eb"><title>540-549: 1 files</title></rect>
<rect x="536.19" y="254.29" width="7.48" height="35.71" fill="#2563eb"><title>550-559: 1 files</title></rect>
<rect x="544.67" y="290.00" width="7.48" height="0.00" fill="#2563eb"><title>560-569: 0 files</title></rect>
<text x="548.40" y="308.00" text-anchor="middle" font-family="Menlo, Consolas, monospace" font-size="9" fill="#475569" transform="rotate(45 548.40 308.00)">560-569</text>
<rect x="553.14" y="290.00" width="7.48" height="0.00" fill="#2563eb"><title>570-579: 0 files</title></rect>
<rect x="561.62" y="254.29" width="7.48" height="35.71" fill="#2563eb"><title>580-589: 1 files</title></rect>
<rect x="570.10" y="254.29" width="7.48" height="35.71" fill="#2563eb"><title>590-599: 1 files</title></rect>
<rect x="578.57" y="290.00" width="7.48" height="0.00" fill="#2563eb"><title>600-609: 0 files</title></rect>
<rect x="587.05" y="254.29" width="7.48" height="35.71" fill="#2563eb"><title>610-619: 1 files</title></rect>
<rect x="595.52" y="290.00" width="7.48" height="0.00" fill="#2563eb"><title>620-629: 0 files</title></rect>
<rect x="604.00" y="290.00" width="7.48" height="0.00" fill="#2563eb"><title>630-639: 0 files</title></rect>
<rect x="612.48" y="290.00" width="7.48" height="0.00" fill="#2563eb"><title>640-649: 0 files</title></rect>
<text x="616.21" y="308.00" text-anchor="middle" font-family="Menlo, Consolas, monospace" font-size="9" fill="#475569" transform="rotate(45 616.21 308.00)">640-649</text>
<rect x="620.95" y="290.00" width="7.48" height="0.00" fill="#2563eb"><title>650-659: 0 files</title></rect>
<rect x="629.43" y="290.00" width="7.48" height="0.00" fill="#2563eb"><title>660-669: 0 files</title></rect>
<rect x="637.90" y="290.00" width="7.48" height="0.00" fill="#2563eb"><title>670-679: 0 files</title></rect>
<rect x="646.38" y="290.00" width="7.48" height="0.00" fill="#2563eb"><title>680-689: 0 files</title></rect>
<rect x="654.86" y="290.00" width="7.48" height="0.00" fill="#2563eb"><title>690-699: 0 files</title></rect>
<rect x="663.33" y="290.00" width="7.48" height="0.00" fill="#2563eb"><title>700-709: 0 files</title></rect>
<rect x="671.81" y="290.00" width="7.48" height="0.00" fill="#2563eb"><title>710-719: 0 files</title></rect>
<rect x="680.29" y="290.00" width="7.48" height="0.00" fill="#2563eb"><title>720-729: 0 files</title></rect>
<text x="684.02" y="308.00" text-anchor="middle" font-family="Menlo, Consolas, monospace" font-size="9" fill="#475569" transform="rotate(45 684.02 308.00)">720-729</text>
<rect x="688.76" y="290.00" width="7.48" height="0.00" fill="#2563eb"><title>730-739: 0 files</title></rect>
<rect x="697.24" y="290.00" width="7.48" height="0.00" fill="#2563eb"><title>740-749: 0 files</title></rect>
<rect x="705.71" y="290.00" width="7.48" height="0.00" fill="#2563eb"><title>750-759: 0 files</title></rect>
<rect x="714.19" y="290.00" width="7.48" height="0.00" fill="#2563eb"><title>760-769: 0 files</title></rect>
<rect x="722.67" y="290.00" width="7.48" height="0.00" fill="#2563eb"><title>770-779: 0 files</title></rect>
<rect x="731.14" y="290.00" width="7.48" height="0.00" fill="#2563eb"><title>780-789: 0 files</title></rect>
<rect x="739.62" y="290.00" width="7.48" height="0.00" fill="#2563eb"><title>790-799: 0 files</title></rect>
<rect x="748.10" y="290.00" width="7.48" height="0.00" fill="#2563eb"><title>800-809: 0 files</title></rect>
<text x="751.83" y="308.00" text-anchor="middle" font-family="Menlo, Consolas, monospace" font-size="9" fill="#475569" transform="rotate(45 751.83 308.00)">800-809</text>
<rect x="756.57" y="290.00" width="7.48" height="0.00" fill="#2563eb"><title>810-819: 0 files</title></rect>
<rect x="765.05" y="290.00" width="7.48" height="0.00" fill="#2563eb"><title>820-829: 0 files</title></rect>
<rect x="773.52" y="290.00" width="7.48" height="0.00" fill="#2563eb"><title>830-839: 0 files</title></rect>
<rect x="782.00" y="290.00" width="7.48" height="0.00" fill="#2563eb"><title>840-849: 0 files</title></rect>
<rect x="790.48" y="290.00" width="7.48" height="0.00" fill="#2563eb"><title>850-859: 0 files</title></rect>
<rect x="798.95" y="290.00" width="7.48" height="0.00" fill="#2563eb"><title>860-869: 0 files</title></rect>
<rect x="807.43" y="290.00" width="7.48" height="0.00" fill="#2563eb"><title>870-879: 0 files</title></rect>
<rect x="815.90" y="290.00" width="7.48" height="0.00" fill="#2563eb"><title>880-889: 0 files</title></rect>
<text x="819.64" y="308.00" text-anchor="middle" font-family="Menlo, Consolas, monospace" font-size="9" fill="#475569" transform="rotate(45 819.64 308.00)">880-889</text>
<rect x="824.38" y="290.00" width="7.48" height="0.00" fill="#2563eb"><title>890-899: 0 files</title></rect>
<rect x="832.86" y="290.00" width="7.48" height="0.00" fill="#2563eb"><title>900-909: 0 files</title></rect>
<rect x="841.33" y="290.00" width="7.48" height="0.00" fill="#2563eb"><title>910-919: 0 files</title></rect>
<rect x="849.81" y="290.00" width="7.48" height="0.00" fill="#2563eb"><title>920-929: 0 files</title></rect>
<rect x="858.29" y="290.00" width="7.48" height="0.00" fill="#2563eb"><title>930-939: 0 files</title></rect>
<rect x="866.76" y="290.00" width="7.48" height="0.00" fill="#2563eb"><title>940-949: 0 files</title></rect>
<rect x="875.24" y="290.00" width="7.48" height="0.00" fill="#2563eb"><title>950-959: 0 files</title></rect>
<rect x="883.71" y="290.00" width="7.48" height="0.00" fill="#2563eb"><title>960-969: 0 files</title></rect>
<text x="887.45" y="308.00" text-anchor="middle" font-family="Menlo, Consolas, monospace" font-size="9" fill="#475569" transform="rotate(45 887.45 308.00)">960-969</text>
<rect x="892.19" y="290.00" width="7.48" height="0.00" fill="#2563eb"><title>970-979: 0 files</title></rect>
<rect x="900.67" y="290.00" width="7.48" height="0.00" fill="#2563eb"><title>980-989: 0 files</title></rect>
<rect x="909.14" y="290.00" width="7.48" height="0.00" fill="#2563eb"><title>990-999: 0 files</title></rect>
<rect x="917.62" y="290.00" width="7.48" height="0.00" fill="#2563eb"><title>1000-1009: 0 files</title></rect>
<rect x="926.10" y="290.00" width="7.48" height="0.00" fill="#2563eb"><title>1010-1019: 0 files</title></rect>
<rect x="934.57" y="290.00" width="7.48" height="0.00" fill="#2563eb"><title>1020-1029: 0 files</title></rect>
<rect x="943.05" y="290.00" width="7.48" height="0.00" fill="#2563eb"><title>1030-1039: 0 files</title></rect>
<rect x="951.52" y="290.00" width="7.48" height="0.00" fill="#2563eb"><title>1040-1049: 0 files</title></rect>
<text x="955.26" y="308.00" text-anchor="middle" font-family="Menlo, Consolas, monospace" font-size="9" fill="#475569" transform="rotate(45 955.26 308.00)">1040-1049</text>
<text x="515.00" y="348" text-anchor="middle" font-family="Menlo, Consolas, monospace" font-size="11" fill="#334155">Line-count bucket</text>
<text x="18" y="165.00" text-anchor="middle" font-family="Menlo, Consolas, monospace" font-size="11" fill="#334155" transform="rotate(-90 18 165.00)">Files in bucket</text>
</svg>